<svg width="839" height="1024" viewBox="0 0 839 1024" fill="none" xmlns="http://www.w3.org/2000/svg">
<g clip-path="url(#clip0_2_3)">
<rect width="839" height="1024" transform="matrix(-1 0 0 1 839 0)" fill="white"/>
<path d="M-230.122 -2V1025.27H765C759.255 1020.38 702.481 937.502 525.826 856.97C341.88 773.123 285.289 731.077 227.924 594.212C187.525 497.851 177.397 387.647 154.873 283.001C135.089 191 68.0475 63.005 -0.780602 -2H-230.122Z" fill="url(#paint0_linear_2_3)"/>
<g opacity="0.31">
<path opacity="0.31" d="M-161.487 311.075C-154.557 272.854 -118.303 248.328 -86.9127 256.929C-55.5224 265.53 -32.1451 302.354 -29.0536 341.315C-24.3181 316.938 -1.78128 304.203 18.6976 301.609C44.3075 298.364 71.3025 306.027 91.3087 325.754C114.388 348.507 126.036 384.523 131.09 420.137C135.724 452.778 135.552 486.854 127.472 518.486C119.391 550.118 102.959 579.152 79.7892 596.548C60.9336 610.705 38.5838 616.647 16.4682 618.312C-19.2446 620.998 -55.843 612.792 -87.1747 591.771C-118.506 570.75 -144.225 536.495 -156.096 495.436C-163.643 469.339 -165.54 441.361 -166.437 413.715C-167.47 381.91 -167.26 350.093 -165.806 318.266C-165.546 312.574 -163.838 305.149 -159.153 305.132" fill="url(#paint1_linear_2_3)"/>
</g>
<g opacity="0.31">
<path opacity="0.31" d="M-231.391 97.6358V220.907C-231.391 236.653 -231.05 252.594 -230.687 268.563C-230.164 293.735 -229.642 318.954 -230.551 343.624C-230.573 344.564 -230.619 345.473 -230.687 346.415V663.183C-215.676 684.262 -196.669 701.253 -175.481 711.917C-131.493 734.046 -79.3065 729.155 -37.7713 700.893C-14.7687 685.383 3.45907 663.773 14.8685 638.485C33.6952 596.326 25.8147 555.632 13.0745 513.252C-2.34534 462.004 -36.2949 417.83 -79.3517 402.494C-66.9978 393.211 -61.275 373.901 -63.183 356.385C-65.0909 338.869 -73.5601 323.205 -84.1212 311.075C-90.1831 304.057 -97.3834 297.841 -105.649 296.295C-110.034 295.503 -114.557 296.283 -118.423 298.496C-122.29 300.709 -125.253 304.214 -126.792 308.395C-121.455 258.502 -131.878 206.342 -155.451 164.984C-174.89 130.866 -200.416 113.157 -230.687 97.9954C-230.914 97.8567 -231.164 97.7468 -231.391 97.6358Z" fill="url(#paint2_linear_2_3)"/>
</g>
<g opacity="0.31">
<path opacity="0.31" d="M-231.391 471.444V1025.03H458.291C463.65 989.889 453.022 953.198 435.854 924.052C403.539 869.102 344.79 836.308 290.515 850.621C251.046 861.036 218.299 893.304 187.165 924.604C186.234 891.674 169.565 860.069 145.334 845.316C121.081 830.591 90.3091 833.326 68.0764 852.195C63.2854 782.88 56.6544 708.26 18.6566 656.35C18.5509 656.226 18.452 656.097 18.3606 655.962C-19.6546 604.356 -86.4883 588.056 -137.925 617.865C-126.007 591.399 -131.339 555.208 -150.097 535.455C-168.855 515.703 -199.059 514.431 -218.883 532.554C-219.574 511.624 -223.803 490.962 -231.391 471.444Z" fill="url(#paint3_linear_2_3)"/>
</g>
<path opacity="0.174" d="M-49.1832 212.438L-41.5544 211.133C-41.2622 208.743 -40.7379 206.388 -39.9887 204.1L-46.2869 198.328C-46.7542 197.852 -47.0494 197.233 -47.1261 196.571C-47.2027 195.908 -47.0564 195.238 -46.7102 194.668L-40.6904 184.948C-40.5551 184.684 -40.3603 184.456 -40.1215 184.281C-39.8827 184.106 -39.6064 183.989 -39.3145 183.939C-39.0227 183.889 -38.7232 183.908 -38.4399 183.994C-38.1565 184.08 -37.8971 184.23 -37.6821 184.434L-31.2862 190.29C-29.7699 188.923 -28.0941 187.745 -26.295 186.781L-27.4323 176.942C-27.5519 176.31 -27.4306 175.657 -27.0923 175.111C-26.7539 174.565 -26.2231 174.165 -25.6045 173.991L-15.6979 172.295C-15.3904 172.272 -15.0814 172.312 -14.7901 172.413C-14.4988 172.515 -14.2313 172.674 -14.004 172.883C-13.7766 173.091 -13.5943 173.344 -13.4683 173.625C-13.3423 173.906 -13.2752 174.211 -13.2711 174.519L-12.1337 184.356C-10.229 184.669 -8.373 185.227 -6.61223 186.018L-1.67233 178.042C-1.53683 177.779 -1.34209 177.551 -1.1033 177.376C-0.864504 177.201 -0.588259 177.084 -0.296473 177.034C-0.00468445 176.984 0.294767 177.003 0.578079 177.089C0.861391 177.175 1.12084 177.325 1.33599 177.528L9.32635 184.852C9.79335 185.328 10.0885 185.947 10.1652 186.609C10.2418 187.272 10.0956 187.941 9.74965 188.512L4.90732 196.331C6.12278 198.226 7.14351 200.239 7.95376 202.34L15.903 200.98C16.2105 200.957 16.5195 200.997 16.8108 201.099C17.1021 201.2 17.3696 201.359 17.5969 201.568C17.8242 201.776 18.0065 202.029 18.1326 202.31C18.2586 202.592 18.3258 202.896 18.3299 203.204L19.723 215.256C19.8412 215.887 19.7193 216.54 19.3811 217.086C19.043 217.632 18.513 218.032 17.8952 218.208L10.2151 219.522C9.99237 221.946 9.53334 224.342 8.84449 226.677L14.9988 232.318C15.4662 232.794 15.7615 233.412 15.8381 234.075C15.9148 234.738 15.7684 235.407 15.4221 235.977L9.40236 245.699C9.26686 245.962 9.072 246.19 8.8332 246.365C8.59441 246.54 8.31829 246.657 8.0265 246.707C7.73472 246.757 7.43526 246.738 7.15195 246.652C6.86864 246.566 6.6092 246.416 6.39404 246.213L0.450277 240.767C-1.15019 242.319 -2.94618 243.656 -4.89235 244.743L-3.85563 253.702C-3.7377 254.333 -3.85984 254.986 -4.19815 255.532C-4.53647 256.078 -5.06659 256.478 -5.6845 256.654L-15.591 258.349C-15.8985 258.372 -16.2073 258.331 -16.4986 258.23C-16.7898 258.129 -17.0574 257.969 -17.2847 257.761C-17.512 257.553 -17.6943 257.3 -17.8204 257.019C-17.9465 256.738 -18.0137 256.434 -18.0179 256.125L-19.0351 247.325C-21.164 246.998 -23.2342 246.363 -25.1811 245.441L-29.6166 252.602C-29.752 252.865 -29.9468 253.094 -30.1855 253.268C-30.4242 253.443 -30.7002 253.56 -30.9919 253.61C-31.2837 253.66 -31.583 253.641 -31.8662 253.556C-32.1495 253.47 -32.4088 253.319 -32.6239 253.116L-40.6154 245.792C-41.0822 245.316 -41.3772 244.698 -41.4538 244.035C-41.5305 243.372 -41.3844 242.703 -41.0387 242.133L-36.5888 234.948C-37.8595 232.878 -38.9033 230.677 -39.702 228.383L-47.192 229.664C-47.4995 229.686 -47.8083 229.646 -48.0996 229.545C-48.3908 229.444 -48.6583 229.284 -48.8856 229.076C-49.1129 228.868 -49.2952 228.615 -49.4212 228.334C-49.5473 228.053 -49.6146 227.749 -49.6188 227.44L-51.0121 215.387C-51.1294 214.756 -51.0069 214.104 -50.6687 213.559C-50.3304 213.013 -49.8007 212.613 -49.1832 212.438ZM-13.7232 233.078C-5.8838 231.736 -0.42708 222.925 -1.52747 213.403C-2.62785 203.882 -9.8734 197.229 -17.7128 198.569C-25.5521 199.91 -31.0088 208.722 -29.9063 218.259C-28.8039 227.796 -21.545 234.419 -13.7232 233.078Z" fill="url(#paint4_linear_2_3)"/>
<path d="M460.798 717.754C453.174 716.951 445.187 717.748 437.52 717.722C435.132 717.712 432.743 717.475 430.357 717.586C427.723 717.708 425.129 718.253 422.513 718.584C419.349 718.976 416.157 719.077 412.975 718.886C410.359 718.733 407.964 717.409 405.546 716.345C400.1 713.947 394.753 711.338 389.505 708.516C379.068 702.885 369.025 696.553 359.445 689.563C340.169 675.564 322.655 659.263 306.369 641.913C300.178 635.318 294.145 628.579 288.272 621.694C241.509 567.137 196.547 430.702 194.764 425.255C194.746 425.201 196.474 419.744 196.519 419.779C198.64 421.474 246.934 455.379 258.16 463.257C258.463 463.471 258.807 463.622 259.17 463.701C259.533 463.78 259.908 463.785 260.273 463.716C260.638 463.647 260.986 463.506 261.295 463.3C261.605 463.094 261.869 462.828 262.074 462.518C264.072 459.513 268.193 453.47 268.95 451.204C269.103 450.746 268.382 451.233 268.28 450.761C268.152 450.334 267.922 449.945 267.611 449.626C262.987 444.103 257.346 439.52 251.589 435.186C246.974 431.711 242.259 428.375 237.445 425.177C235.266 423.834 233.301 422.171 231.616 420.245C229.703 418.041 227.787 415.841 225.868 413.644C218.213 404.879 210.504 396.16 202.83 387.41C188.692 371.289 174.678 355.046 161.308 338.283C158.867 335.225 156.102 331.929 150.748 333.857C147.968 334.916 145.68 336.969 144.327 339.618C144.175 340.96 142.569 342.924 141.928 344.13C141.044 345.789 140.161 347.449 139.279 349.109L116.635 391.677C112.739 399.001 108.843 406.324 104.948 413.647L99.4522 423.98C97.6521 427.364 96.1027 430.795 93.753 433.804C93.457 434.152 93.2073 434.536 93.0101 434.947C92.8522 435.361 92.7487 435.794 92.702 436.235C92.2951 439.035 92.0286 441.85 91.9025 444.681C91.7984 445.754 91.8868 446.838 92.1635 447.88C92.3079 448.4 92.5775 448.877 92.9488 449.268C93.3201 449.66 93.7818 449.955 94.2934 450.126C96.7274 450.769 99.5908 449.073 101.536 447.814L107.438 443.989L120.514 435.52L141.849 421.699C141.892 421.672 141.952 421.692 141.943 421.742C141.551 425.808 130.632 541.707 152.144 615.666C156.39 630.28 161.447 644.646 167.293 658.696C186.641 705.15 214.823 748.116 250.675 783.508C264.296 797.085 279.167 809.348 295.09 820.135C301.579 824.483 308.407 828.106 315.085 832.119C317.987 833.865 321.934 836.911 324.322 832.774C327.106 827.834 329.378 822.622 331.104 817.221C331.257 816.74 330.8 816.538 330.72 816.04C330.613 815.581 330.408 815.15 330.12 814.776C328.887 812.917 327.516 811.13 326.461 809.174C325.139 806.862 324.245 804.332 323.82 801.703C323.398 798.735 323.966 795.427 324.167 792.437C324.612 785.818 325.22 779.213 325.991 772.622C326.891 764.923 328.012 757.255 329.355 749.617C330.452 743.35 330.224 741.477 336.287 743.224C357.371 749.486 379.419 751.861 401.354 750.233C413.609 749.251 426.396 745.889 438.053 742.154C442.126 741 446.051 739.372 449.745 737.303C451.888 735.999 459.876 721.6 460.798 717.754Z" fill="#FF9100"/>
<path d="M98.5727 438.423L149.375 405.514C149.416 405.482 149.47 405.507 149.466 405.544C149.076 409.623 138.164 525.515 159.666 599.486C163.912 614.096 168.971 628.458 174.819 642.504C194.172 688.944 222.334 731.933 258.188 767.321C271.824 780.887 286.699 793.149 302.618 803.945C309.102 808.303 315.95 811.917 322.621 815.942C325.364 817.578 328.964 820.879 330.981 817.414C332.509 814.807 330.783 806.027 330.776 802.835C330.784 794.719 331.04 786.612 331.543 778.514C331.99 771.138 332.646 763.779 333.512 756.439C334.426 748.723 335.547 741.052 336.875 733.424C337.028 732.565 337.155 731.78 337.271 731.081C338.027 726.726 338.575 725.519 343.815 727.029C343.852 727.029 343.905 727.058 343.942 727.062C402.834 743.982 461.861 725.071 461.205 716.393C461.191 716.056 461.101 715.727 460.941 715.43C459.719 712.884 448.21 712.192 445.239 711.406C439.495 709.895 433.781 708.125 428.166 706.144C374.58 687.196 332.166 647.946 295.806 605.503C249.031 550.941 204.077 414.516 202.291 409.056C202.274 409.036 202.317 408.985 202.369 409.028C204.782 410.944 237.124 436.696 263.906 452.746C264.65 453.189 265.526 453.357 266.381 453.221C267.236 453.084 268.016 452.652 268.585 452C269.155 451.348 269.477 450.516 269.496 449.651C269.515 448.785 269.23 447.94 268.691 447.263L168.824 322.1C166.685 319.412 164.303 316.552 160.145 317.195C159.509 317.291 158.884 317.452 158.28 317.674C155.486 318.728 153.187 320.79 151.838 323.454C135.345 354.459 106.345 408.973 93.267 433.574C92.8868 434.301 92.7578 435.133 92.9001 435.941C93.0424 436.749 93.4479 437.487 94.0535 438.041C94.659 438.594 95.4306 438.932 96.248 439.001C97.0655 439.07 97.8829 438.867 98.5727 438.423Z" fill="#FFB200"/>
<g style="mix-blend-mode:multiply" opacity="0.283">
<path d="M98.5728 438.423L149.375 405.514C149.416 405.482 149.47 405.507 149.466 405.544C149.076 409.623 138.164 525.515 159.666 599.486C163.912 614.096 168.971 628.458 174.819 642.504C194.172 688.944 222.334 731.933 258.188 767.321C271.824 780.887 286.699 793.149 302.618 803.945C309.102 808.303 315.95 811.917 322.621 815.942C325.364 817.578 328.965 820.879 330.981 817.414C332.509 814.807 330.783 806.027 330.776 802.835C330.784 794.719 331.04 786.612 331.543 778.514C331.99 771.138 332.646 763.779 333.512 756.439C334.426 748.723 335.547 741.052 336.875 733.424C337.028 732.565 337.155 731.78 337.271 731.081C268.976 686.071 226.16 605.872 199.765 527.315C168.93 435.451 160.552 345.805 160.147 317.19C159.511 317.286 158.886 317.446 158.282 317.669C155.488 318.722 153.189 320.785 151.84 323.449C135.347 354.454 106.347 408.968 93.2691 433.569C92.8874 434.296 92.757 435.129 92.8984 435.937C93.0398 436.746 93.445 437.485 94.0506 438.04C94.6563 438.594 95.4283 438.932 96.2463 439.001C97.0644 439.071 97.8825 438.867 98.5728 438.423Z" fill="#FFB200"/>
</g>
<path d="M283.75 354.206L335.638 360.104C339.181 360.507 341.727 363.706 341.324 367.25L336.789 407.151C336.386 410.695 333.187 413.241 329.643 412.838L277.756 406.94C274.212 406.537 271.666 403.338 272.069 399.794L276.605 359.893C277.008 356.349 280.207 353.803 283.75 354.206Z" fill="#0090C6"/>
<path d="M298.976 407.211L290.637 417.164C290.486 417.345 290.29 417.482 290.069 417.563C289.848 417.645 289.61 417.666 289.378 417.626C289.146 417.586 288.928 417.485 288.747 417.335C288.566 417.184 288.428 416.988 288.347 416.767C286.993 412.932 285.958 408.992 285.252 404.987" fill="#0090C6"/>
<g style="mix-blend-mode:multiply" opacity="0.283">
<g style="mix-blend-mode:multiply" opacity="0.283">
<path d="M208.383 556.86C211.112 567.657 203.639 578.247 202.326 589.294C201.054 599.992 205.526 613.189 210.769 622.388C229.982 656.157 262.315 684.673 297.264 701.319C301.205 703.196 305.278 704.903 308.764 707.531C318.422 714.816 321.794 727.576 324.55 739.357L330.446 764.571C330.733 765.797 331.092 766.67 332.316 766.667C333.051 763.401 333.108 759.813 333.509 756.439C334.423 748.723 335.543 741.052 336.872 733.424C337.025 732.565 337.152 731.78 337.268 731.081C338.024 726.726 338.572 725.519 343.812 727.029C343.849 727.029 343.902 727.058 343.939 727.062C332.675 691.183 314.99 657.648 291.745 628.087L288.745 624.761C280.288 603.777 271.843 582.8 263.411 561.831C259.134 551.193 254.842 540.517 248.964 530.668C242.823 520.34 235.787 511.312 223.366 509.284C217.264 508.292 210.324 508.77 205.915 513.086C204.455 514.579 203.272 516.321 202.422 518.23C200.566 522.179 199.574 526.479 199.512 530.842C199.451 535.205 200.321 539.531 202.066 543.531C204.068 548.028 207.171 552.097 208.383 556.86Z" fill="#494949"/>
</g>
</g>
<path d="M314.927 385.919C314.82 386.857 314.994 387.805 315.427 388.644C315.859 389.484 316.531 390.176 317.357 390.633C318.183 391.091 319.126 391.293 320.067 391.214C321.008 391.136 321.904 390.78 322.643 390.192C323.381 389.604 323.929 388.81 324.216 387.911C324.504 387.011 324.518 386.047 324.258 385.14C323.997 384.232 323.473 383.422 322.752 382.813C322.031 382.203 321.146 381.821 320.208 381.714C318.95 381.572 317.687 381.934 316.696 382.723C315.706 383.511 315.069 384.661 314.927 385.919Z" fill="#FEFEFE"/>
<path d="M306.535 389.739C303.899 389.739 301.762 387.601 301.762 384.965C301.762 382.329 303.899 380.192 306.535 380.192C309.172 380.192 311.309 382.329 311.309 384.965C311.309 387.601 309.172 389.739 306.535 389.739Z" fill="#FEFEFE"/>
<path d="M288.659 382.933C288.552 383.871 288.726 384.82 289.159 385.659C289.591 386.498 290.263 387.19 291.089 387.648C291.914 388.105 292.857 388.308 293.798 388.23C294.739 388.151 295.635 387.796 296.374 387.208C297.113 386.62 297.661 385.826 297.948 384.927C298.236 384.028 298.251 383.063 297.99 382.156C297.73 381.248 297.206 380.438 296.485 379.829C295.765 379.219 294.879 378.836 293.941 378.73C292.683 378.587 291.42 378.949 290.43 379.737C289.439 380.526 288.802 381.675 288.659 382.933Z" fill="#FEFEFE"/>
<path d="M113.414 605.282C83.5206 601.885 61.9202 575.962 65.1684 547.382C68.4166 518.802 95.2834 498.387 125.177 501.785C155.071 505.182 176.671 531.105 173.423 559.685C170.175 588.265 143.308 608.68 113.414 605.282Z" fill="#F24B57"/>
<path d="M114.742 593.553C91.6176 590.924 74.9091 570.871 77.4221 548.763C79.9351 526.655 100.718 510.864 123.842 513.492C146.966 516.121 163.675 536.174 161.162 558.282C158.649 580.39 137.866 596.181 114.742 593.553Z" fill="#FEFEFE"/>
<path d="M116.093 581.662C99.8381 579.814 88.0927 565.718 89.8592 550.177C91.6257 534.636 106.235 523.536 122.49 525.383C138.746 527.231 150.491 541.327 148.724 556.868C146.958 572.409 132.348 583.509 116.093 581.662Z" fill="#F24B57"/>
<path d="M117.442 569.804C108.037 568.735 101.241 560.579 102.263 551.587C103.285 542.595 111.738 536.172 121.144 537.241C130.549 538.31 137.345 546.466 136.323 555.458C135.301 564.451 126.847 570.874 117.442 569.804Z" fill="#FEFEFE"/>
<path d="M118.363 561.7C113.64 561.163 110.227 557.067 110.74 552.55C111.253 548.034 115.499 544.809 120.222 545.346C124.946 545.882 128.359 549.979 127.846 554.495C127.332 559.011 123.087 562.237 118.363 561.7Z" fill="#F24B57"/>
<path d="M17.3312 512.859C19.908 510.943 23.7239 511.569 26.5781 514.126C28.186 510.651 31.444 508.568 34.5685 509.309C38.2672 510.186 40.3715 514.685 39.2639 519.357C37.8984 524.545 34.8034 529.112 30.4906 532.303C29.3604 532.097 22.1354 529.775 17.9229 525.028C17.5867 524.688 17.273 524.326 16.9839 523.946C14.1235 520.09 14.2776 515.126 17.3312 512.859Z" fill="#F24B57"/>
<path d="M93.2444 650.757C94.0725 648.35 96.8496 647.05 99.86 647.447C99.3545 644.453 100.554 641.63 102.929 640.716C105.743 639.632 109.133 641.634 110.501 645.185C111.933 649.191 111.954 653.565 110.562 657.584C109.728 657.959 103.964 659.674 99.0813 658.456C98.7104 658.382 98.3445 658.284 97.986 658.163C94.3859 656.924 92.2632 653.608 93.2444 650.757Z" fill="#F24B57"/>
<path d="M380.224 404.786C383.428 405.001 385.927 407.952 386.436 411.748C389.915 410.146 393.745 410.675 395.643 413.265C397.89 416.334 396.568 421.122 392.698 423.958C388.293 427.022 382.975 428.491 377.622 428.122C376.891 427.23 372.903 420.778 372.776 414.431C372.745 413.955 372.745 413.477 372.776 413.001C373.094 408.21 376.429 404.533 380.224 404.786Z" fill="#F24B57"/>
<path d="M418.072 528.223C420.904 529.736 421.967 533.454 420.871 537.124C424.701 537.094 427.975 539.152 428.638 542.293C429.425 546.015 426.255 549.836 421.556 550.829C416.281 551.81 410.829 550.961 406.103 548.422C405.804 547.309 404.821 539.792 407.316 533.951C407.482 533.503 407.678 533.067 407.901 532.645C410.163 528.41 414.717 526.43 418.072 528.223Z" fill="#F24B57"/>
<path d="M389.18 562.406C391.447 562.797 393.008 565.086 393.085 567.83C395.683 566.947 398.373 567.609 399.533 569.596C400.906 571.951 399.61 575.264 396.638 576.993C393.271 578.85 389.372 579.503 385.584 578.843C385.13 578.152 382.767 573.258 383.15 568.726C383.162 568.384 383.197 568.043 383.253 567.706C383.843 564.315 386.495 561.942 389.18 562.406Z" fill="#F24B57"/>
<path d="M294.727 530.351C294.25 529.846 293.809 529.31 293.405 528.746C292.358 527.275 290.854 526.24 289.802 524.717C288.569 522.933 286.977 521.451 286.38 519.291C285.897 517.182 286.12 514.972 287.013 513.001C287.583 511.445 288.559 510.07 289.841 509.018C290.485 508.5 291.244 508.146 292.055 507.985C292.865 507.824 293.703 507.861 294.496 508.093C295.196 508.351 295.834 508.755 296.368 509.277C298.04 510.998 299.035 513.265 299.169 515.66C299.374 517.878 298.519 520.193 298.746 522.327C298.926 524.024 300.278 525.984 300.964 527.574" fill="#F4BE90"/>
<path d="M278.77 641.364L275.899 643.7C284.771 654.204 304.856 656.117 317.626 653.739C318.12 653.653 319.262 653.37 320.891 652.943C331.64 650.192 363.312 641.349 363.487 639.803C360.826 662.209 364.678 684.814 368.501 707.045C369.374 712.142 369.809 725.716 377.037 722.879C377.735 722.602 378.398 722.243 379.01 721.808C382.115 719.67 383.011 715.54 383.647 711.828C388.248 684.489 391.631 656.984 393.795 629.31C394.121 625.189 394.339 620.758 392.208 617.213C387.977 610.227 377.824 610.88 369.741 612.097C348.393 615.282 327.142 614.357 305.763 615.816C299.149 616.26 292.44 615.412 285.891 616.418C279.342 617.424 272.544 620.867 270.119 627.041C267.694 633.215 272.147 641.764 278.77 641.364Z" fill="#43496D"/>
<g style="mix-blend-mode:multiply" opacity="0.356">
<g style="mix-blend-mode:multiply" opacity="0.356">
<path d="M312.378 645.52C314.621 647.701 316.96 649.777 319.393 651.75C319.857 652.123 320.402 652.382 320.985 652.505C321.567 652.629 322.171 652.614 322.746 652.462C331.55 650.156 348.953 645.299 357.895 642.25C358.491 642.048 359.128 641.998 359.749 642.103C360.37 642.208 360.954 642.466 361.451 642.853C361.947 643.24 362.34 643.744 362.593 644.32C362.847 644.897 362.953 645.527 362.903 646.154C361.554 666.475 365.039 686.914 368.501 707.047C368.683 708.109 368.845 709.539 369.055 711.111C369.706 716.004 377.025 715.214 376.63 710.289C376.556 709.364 376.479 708.447 376.404 707.527C374.253 681.86 373.157 656.129 373.117 630.335C373.121 629.822 373.021 629.313 372.823 628.84C372.624 628.366 372.331 627.939 371.961 627.583C371.591 627.227 371.152 626.95 370.672 626.77C370.191 626.589 369.679 626.509 369.166 626.533C365.068 626.794 361 628.093 357.027 629.281C343.03 633.452 328.684 636.327 314.327 639.017C313.637 639.145 312.997 639.462 312.475 639.93C311.953 640.399 311.571 641.003 311.37 641.674C311.168 642.346 311.156 643.06 311.334 643.739C311.511 644.417 311.873 645.034 312.378 645.52Z" fill="#15233A"/>
</g>
</g>
<path d="M251.445 649.123C255.76 655.31 261.078 660.733 267.179 665.168C279.321 674.258 292.398 682.026 306.189 688.339C318.058 693.736 321.751 702.959 324.978 714.906C329.547 731.826 335.252 748.522 340.382 765.284C343.567 775.711 348.944 788.038 359.792 789.143C358.479 767.523 356.205 745.973 353.639 724.469C351.472 706.297 352.628 681.673 342.122 665.944C335.244 655.648 324.797 648.229 314.769 641.269C304.691 634.273 295.242 626.545 285.496 619.335C278.428 614.106 270.938 608.702 262.215 607.602C246.78 605.65 242.73 620.418 244.787 632.912C245.814 638.732 248.085 644.261 251.445 649.123Z" fill="#43496D"/>
<path d="M229.98 569.279C230.099 570.525 230.236 571.79 230.406 573.081C232.601 588.496 236.006 603.715 240.59 618.596C241.446 621.479 242.572 624.275 243.952 626.947C244.198 627.502 244.598 627.975 245.104 628.31C245.788 628.686 246.625 628.389 247.406 628.403C252.009 628.46 256.29 628.443 260.249 628.352C264.721 628.244 268.793 628.054 272.536 627.789C274.059 627.686 275.509 627.567 276.925 627.429C297.349 625.534 306.293 621.382 310.092 618.659C310.216 618.556 310.336 618.482 310.459 618.384C311.36 617.775 312.123 616.985 312.701 616.064C312.701 616.064 309.401 608.654 307.798 605.187C303.415 595.807 299.862 586.18 296.247 576.461C293.971 570.381 291.967 564.201 289.69 558.138C287.532 552.369 282.498 546.739 278.615 541.969C277.48 540.484 276.149 539.158 274.658 538.03C272.285 536.417 269.406 535.81 266.594 535.266C263.663 534.531 260.638 534.244 257.621 534.414C256.584 534.532 255.554 534.714 254.539 534.959C250.7 535.646 246.952 536.773 243.371 538.317C238.267 540.74 234.055 544.707 231.333 549.657C229.282 553.414 229.123 560.728 229.98 569.279Z" fill="#0090C6"/>
<g style="mix-blend-mode:multiply" opacity="0.277">
<g style="mix-blend-mode:multiply" opacity="0.277">
<path d="M229.98 569.279C230.099 570.525 230.236 571.79 230.406 573.081C232.601 588.496 236.006 603.715 240.59 618.596C241.446 621.479 242.572 624.275 243.952 626.947C244.198 627.502 244.598 627.975 245.104 628.31C245.788 628.686 246.625 628.389 247.406 628.403C252.009 628.46 256.29 628.443 260.249 628.352C236.278 599.236 243.31 587.608 229.98 569.279Z" fill="#0090C6"/>
</g>
</g>
<path d="M268.276 554.61C268.02 554.442 267.802 554.223 267.637 553.965C267.472 553.707 267.364 553.417 267.32 553.114C267.276 552.811 267.296 552.503 267.38 552.209C267.465 551.914 267.61 551.642 267.808 551.408C269.599 547.847 262.787 534.437 266.704 535.184C281.05 537.918 293.351 548.149 302.908 558.585C298.737 552.529 296.435 545.449 294.791 538.344C294.034 535.074 293.643 531.743 292.294 528.711C290.97 525.731 293.444 524.857 295.88 523.605C296.332 523.343 296.824 523.157 297.337 523.056C300.143 522.645 304.18 527.621 305.959 529.441C308.56 532.103 310.903 535.004 312.958 538.107C317.023 544.221 319.899 551.045 321.437 558.224C322.743 564.402 324.604 574.598 316.986 577.122C314.611 577.797 312.118 577.952 309.677 577.578C306.704 577.246 303.776 576.592 300.944 575.626C298.821 574.907 296.762 574.007 294.706 573.113L289.687 570.929C287.486 570.033 285.351 568.982 283.298 567.784C280.443 565.9 277.812 563.697 275.456 561.218C273.158 558.96 270.621 556.862 268.276 554.61Z" fill="#0090C6"/>
<path d="M238.348 541.255C238.462 543.904 238.715 546.544 239.107 549.166C239.923 552.371 241.212 555.527 242.251 558.667C243.376 562.061 243.704 565.669 243.206 569.209C242.836 571.403 241.279 573.746 240.396 575.785C239.38 578.135 238.391 580.496 237.427 582.867C235.092 589.839 234.792 597.333 236.563 604.469C239.359 615.151 243.024 625.587 247.519 635.672C248.317 637.238 248.86 638.921 249.128 640.658C249.648 646.092 245.121 645.356 242.032 642.801C236.541 638.257 232.004 632.679 227.75 626.958C222.06 619.482 217.673 611.099 214.776 602.161C213.404 598.204 212.642 594.06 212.516 589.873C212.89 554.099 234.904 543.863 238.348 541.255Z" fill="#0090C6"/>
<path d="M240.577 521.685C242.136 527.534 243.4 533.457 244.363 539.433C245.823 548.425 259.805 546.245 258.348 537.235C258.142 535.924 257.914 534.647 257.672 533.33C257.653 533.16 257.619 532.97 257.582 532.797C257.112 530.374 256.618 527.986 256.051 525.589C256.014 525.416 255.962 525.224 255.925 525.051C255.502 523.194 255.042 521.331 254.543 519.482C253.565 515.77 250.565 512.947 246.462 513.582C242.965 514.139 239.598 517.993 240.577 521.685Z" fill="#F4BE90"/>
<g style="mix-blend-mode:multiply">
<g style="mix-blend-mode:multiply">
<path d="M244.726 523.931C246.141 527.438 248.878 530.249 252.345 531.757C254.042 532.519 255.834 533.049 257.672 533.333C257.653 533.163 257.619 532.973 257.582 532.8C257.112 530.377 256.618 527.989 256.051 525.592C253.59 525.793 251.113 525.518 248.756 524.781C247.46 524.309 246.103 524.023 244.726 523.931Z" fill="#F4BE90"/>
</g>
</g>
<path d="M369.405 727.234C369.224 727.059 369.062 726.865 368.924 726.655C367.964 725.199 368.223 723.295 368.452 721.568C368.809 718.877 369.006 716.166 369.04 713.452C369.057 712.058 368.102 708.277 370.393 708.549L382.801 710.015C382.936 710.02 383.067 710.058 383.184 710.124C383.28 710.218 383.352 710.332 383.396 710.458C383.44 710.585 383.455 710.719 383.439 710.852C383.355 712.161 383.53 713.474 383.953 714.715C384.624 715.948 386.616 716.702 387.866 717.099C389.557 717.57 391.287 717.89 393.035 718.057C397.412 718.632 401.759 719.421 406.103 720.214C407.968 720.385 409.752 721.06 411.263 722.166C413.438 724.097 413.312 726.655 410.907 728.081C407.401 730.161 402.428 730.012 398.502 729.958C394.058 729.897 389.608 729.609 385.17 729.383C382.224 729.233 379.279 729.07 376.334 728.893C374.248 728.754 371.071 728.837 369.405 727.234Z" fill="#252935"/>
<path d="M344.561 788.42C344.379 788.245 344.218 788.051 344.079 787.841C342.627 785.635 343.2 782.173 343.138 779.69C343.059 776.498 342.873 773.31 342.579 770.128C347.688 771.487 353.231 769.841 358.347 771.177C358.34 772.889 358.775 774.574 359.611 776.068C360.408 777.468 361.515 777.801 363.027 778.281C364.718 778.751 366.448 779.072 368.195 779.238C372.573 779.814 376.919 780.603 381.264 781.396C383.13 781.566 384.914 782.241 386.425 783.348C388.6 785.279 388.473 787.837 386.068 789.264C382.562 791.343 377.589 791.194 373.664 791.139C369.219 791.08 364.769 790.792 360.331 790.565C357.386 790.415 354.44 790.251 351.495 790.075C349.403 789.94 346.227 790.023 344.561 788.42Z" fill="#252935"/>
<path d="M243.518 638.671C244.261 637.94 245.26 637.528 246.303 637.522C248.929 637.587 251.646 640.614 253.193 642.49C255.121 644.749 256.467 647.444 257.116 650.341C257.629 652.917 257.975 658.024 255.353 659.661C252.136 661.67 247.372 657.797 245.414 655.478C242.058 651.504 239.79 645.204 242.332 640.239C242.632 639.651 243.034 639.121 243.518 638.671Z" fill="#F4BE90"/>
<path d="M258.149 494.627C256.959 495.915 257.163 497.723 257.139 499.328C257.016 500.955 256.998 502.587 257.086 504.216C257.466 507.617 258.847 510.83 261.055 513.445C262.18 514.763 263.907 515.994 265.523 515.369C266.98 514.805 267.521 513.044 267.729 511.495C268.352 506.791 267.635 502.006 265.661 497.69C264.785 495.785 263.4 493.805 261.329 493.502C260.748 493.422 260.156 493.483 259.603 493.679C259.05 493.874 258.551 494.199 258.149 494.627Z" fill="#563624"/>
<path d="M253.717 495.509C259.496 495.779 263.907 500.971 265.852 506.503C267.261 510.263 267.578 514.345 266.766 518.277C266.35 520.244 265.528 522.102 264.352 523.732C263.176 525.363 261.673 526.729 259.938 527.745C256.12 529.806 251.48 529.564 247.473 528.139C245.072 527.297 242.86 525.989 240.965 524.291C240.254 523.646 239.531 523.014 238.795 522.397C238.303 521.986 237.922 521.24 237.362 520.972C236.996 520.828 236.615 520.724 236.226 520.664C235.232 520.435 234.308 519.973 233.529 519.315C232.923 518.837 232.469 518.192 232.224 517.46C232.102 516.972 232.053 516.469 232.078 515.967C232.206 514.284 232.228 512.595 232.144 510.91C231.906 508.817 231.9 506.418 233.37 504.893C234.52 503.699 236.181 503.419 237.537 502.578C239.03 501.653 239.465 499.847 240.677 498.548C243.389 495.64 247.987 494.28 251.275 496.312" fill="#F4BE90"/>
<path d="M245.876 487.275C246.171 485.776 246.799 484.362 247.714 483.138C248.628 481.914 249.806 480.91 251.16 480.201C252.751 479.419 254.531 479.101 256.295 479.285C258.059 479.468 259.735 480.145 261.132 481.238C267.031 486.08 263.578 495.025 257.699 498.138C252.341 500.976 242.275 497.39 238.935 503.995C237.166 507.488 239.817 511.712 239.149 515.573C238.064 515.355 237.468 514.226 236.907 513.272C236.346 512.317 235.393 511.319 234.321 511.59C233.92 511.761 233.569 512.033 233.303 512.379C233.037 512.725 232.865 513.134 232.802 513.565C232.46 514.674 232.435 515.857 232.731 516.98C232.886 517.537 233.178 518.047 233.58 518.464C233.982 518.88 234.481 519.189 235.033 519.363C235.607 519.513 236.214 519.477 236.8 519.569C237.659 519.765 238.458 520.166 239.128 520.739C239.798 521.312 240.319 522.038 240.646 522.857C241.388 524.492 242.462 527.702 239.917 526.018C238.546 525.051 237.274 523.95 236.121 522.73C232.661 519.347 230.177 515.093 228.929 510.417C228.06 506.943 228.343 503.281 229.734 499.981C230.108 498.967 230.731 498.064 231.546 497.356C231.958 497.008 232.456 496.778 232.987 496.69C233.519 496.602 234.065 496.659 234.567 496.856C234.749 495.068 235.146 493.309 235.749 491.616C236.365 489.909 237.576 488.482 239.16 487.597C240.232 487.087 241.436 486.922 242.606 487.123C243.776 487.324 244.855 487.882 245.695 488.721C245.719 488.235 245.779 487.752 245.876 487.275Z" fill="#563624"/>
<path d="M292.198 504.889C292.445 505.216 292.615 505.594 292.697 505.996C294.119 511.107 295.142 516.32 295.756 521.59C295.917 522.976 295.961 524.605 294.892 525.503C294.415 525.84 293.848 526.026 293.264 526.035C292.68 526.045 292.107 525.878 291.62 525.557C290.657 524.895 289.868 524.01 289.322 522.977C285.961 517.478 284.316 511.084 283.489 504.688" fill="#F24B57"/>
<path d="M269.367 501.856C269.863 505.533 271.718 509.084 275.261 510.083C276.775 510.452 278.351 510.484 279.879 510.179C283.092 509.649 286.496 508.263 289.24 507.773C291.421 507.366 293.627 507.099 295.843 506.974C298.099 506.846 300.361 506.841 302.618 506.96C311.557 507.417 320.329 509.403 329.197 510.523L314.299 460.331C309.191 467.673 303.297 474.437 296.723 480.501C294.886 482.109 292.947 483.597 290.917 484.954C289.644 485.817 288.319 486.637 286.997 487.439C283.606 489.48 280.464 491.548 276.677 492.853C276.061 493.059 275.417 493.264 274.794 493.498C273.587 493.882 272.465 494.495 271.491 495.305C270.636 496.146 269.997 497.18 269.627 498.32C269.258 499.461 269.168 500.674 269.367 501.856Z" fill="#F54B56"/>
<path d="M309.836 477.862C309.997 485.466 312.041 492.912 315.784 499.533C320.202 507.136 326.432 511.564 332.246 510.341C340.91 508.499 345.345 494.847 342.146 479.802C338.968 464.784 329.368 454.092 320.732 455.914C313.784 457.405 309.564 466.517 309.836 477.862Z" fill="#505982"/>
<path d="M312.258 478.623C312.27 479.017 312.279 479.428 312.309 479.823C312.31 480.005 312.32 480.187 312.339 480.368C312.449 482.255 312.704 484.131 313.102 485.979C313.608 488.389 314.34 490.746 315.287 493.019C315.464 493.43 315.642 493.841 315.82 494.236C316.27 495.242 316.775 496.222 317.335 497.171C321.128 503.686 326.444 507.48 331.435 506.424C338.833 504.858 342.627 493.159 339.894 480.271C337.175 467.428 328.958 458.278 321.579 459.825C315.629 461.111 312.019 468.911 312.258 478.623Z" fill="#252935"/>
<path d="M312.484 481.897C312.484 482.046 312.497 482.182 312.509 482.334C312.598 483.852 312.804 485.36 313.125 486.845C313.532 488.783 314.12 490.678 314.882 492.506C315.025 492.838 315.167 493.169 315.311 493.485C316.47 493.588 318.741 493.665 319.856 493.762C320.095 493.774 320.348 493.788 320.586 493.815C321.555 493.865 324.441 493.953 324.711 493.954C324.666 493.954 324.447 493.894 324.391 493.332C324.344 492.952 324.266 492.583 324.186 492.214C323.878 490.529 323.518 488.852 323.137 487.188C322.374 483.86 321.507 480.536 321.022 477.15C320.809 476.781 320.564 476.423 320.368 476.04C319.909 476.244 314.061 480.691 312.484 481.897Z" fill="url(#paint5_linear_2_3)"/>
<path d="M318.221 482.758C318.275 485.353 318.972 487.895 320.249 490.155C321.757 492.751 323.882 494.265 325.866 493.845C328.822 493.216 330.336 488.555 329.245 483.417C328.154 478.28 324.886 474.639 321.939 475.262C319.564 475.773 318.126 478.884 318.221 482.758Z" fill="#FFB200"/>
<path d="M269.367 501.856C269.864 505.533 271.718 509.084 275.262 510.083C276.776 510.451 278.351 510.484 279.879 510.179C276.576 506.725 274.207 500.484 274.796 493.498C273.589 493.882 272.467 494.495 271.493 495.305C270.638 496.145 269.998 497.18 269.628 498.32C269.258 499.461 269.168 500.673 269.367 501.856Z" fill="#252935"/>
<g style="mix-blend-mode:multiply" opacity="0.283">
<g style="mix-blend-mode:multiply" opacity="0.283">
<path d="M187.333 430.063C188.604 439.899 190.391 449.637 192.47 459.33C194.548 468.988 197.129 478.524 200.047 487.96C201.691 493.289 203.447 498.586 205.317 503.85C205.575 504.583 204.449 504.861 204.172 504.166C200.483 494.911 197.354 485.441 194.803 475.809C192.225 466.185 190.163 456.431 188.627 446.587C187.776 441.1 187.086 435.594 186.557 430.068C186.509 429.568 187.265 429.587 187.328 430.068L187.333 430.063Z" fill="#FF7900"/>
</g>
</g>
<g style="mix-blend-mode:multiply" opacity="0.283">
<g style="mix-blend-mode:multiply" opacity="0.283">
<path d="M187.198 477.505C188.955 487.285 191.219 496.942 193.78 506.538C196.331 516.101 199.383 525.516 202.766 534.815C204.675 540.058 206.69 545.263 208.814 550.432C209.066 551.048 208.008 551.502 207.728 550.89C203.59 541.832 199.998 532.534 196.971 523.047C193.937 513.626 191.406 504.051 189.388 494.362C188.245 488.84 187.268 483.289 186.455 477.707C186.385 477.227 187.109 477.009 187.198 477.501V477.505Z" fill="#FF7900"/>
</g>
</g>
<g style="mix-blend-mode:multiply" opacity="0.283">
<g style="mix-blend-mode:multiply" opacity="0.283">
<path d="M201.991 453.478C202.171 454.776 202.526 456.024 202.77 457.31C203.015 458.596 203.284 459.879 203.536 461.158C204.028 463.692 204.578 466.212 205.185 468.718C206.411 473.78 207.792 478.799 209.047 483.852C209.081 483.979 209.063 484.114 208.997 484.228C208.932 484.341 208.824 484.425 208.698 484.46C208.571 484.495 208.436 484.478 208.322 484.414C208.207 484.35 208.123 484.243 208.086 484.117C206.224 479.201 204.799 474.131 203.827 468.965C203.318 466.387 202.869 463.796 202.481 461.195C202.294 459.938 202.156 458.675 202.019 457.412C201.879 456.111 201.886 454.812 201.739 453.513C201.722 453.37 201.971 453.335 201.991 453.478Z" fill="#FF7900"/>
</g>
</g>
<g style="mix-blend-mode:multiply" opacity="0.283">
<g style="mix-blend-mode:multiply" opacity="0.283">
<path d="M313.361 757.032C307.784 752.952 302.257 748.746 297 744.259C291.774 739.799 286.69 735.179 281.749 730.398C271.873 720.838 262.654 710.621 254.156 699.818C249.358 693.728 244.774 687.451 240.605 680.914C240.213 680.297 241.147 679.794 241.56 680.355C249.728 691.42 258.124 702.295 267.324 712.53C276.417 722.73 286.084 732.404 296.279 741.504C302.032 746.596 307.85 751.596 313.886 756.349C314.269 756.651 313.758 757.321 313.361 757.03V757.032Z" fill="#FF7900"/>
</g>
</g>
<g style="mix-blend-mode:multiply" opacity="0.283">
<g style="mix-blend-mode:multiply" opacity="0.283">
<path d="M246.184 714.05C250.359 722.287 255.993 729.7 262.813 735.928C263.574 736.628 262.46 737.703 261.689 737.051C256.071 732.313 251.418 726.538 247.984 720.041C247.017 718.204 246.139 716.324 245.347 714.403C245.15 713.925 245.954 713.589 246.184 714.05Z" fill="#FF7900"/>
</g>
</g>
<path d="M258.918 682.142C267.001 693.894 276.327 704.741 286.734 714.495C289.639 717.188 292.701 719.709 295.548 722.463C295.933 722.836 295.426 723.531 294.964 723.219C292.043 721.168 289.279 718.901 286.696 716.438C284.048 714.011 281.477 711.504 278.982 708.916C274.018 703.748 269.391 698.267 265.131 692.505C262.722 689.263 260.521 685.884 258.418 682.436C258.222 682.115 258.708 681.843 258.918 682.144V682.142Z" fill="#FF7900"/>
<g style="mix-blend-mode:screen" opacity="0.302">
<g style="mix-blend-mode:screen" opacity="0.302">
<path d="M224.373 415.269C227.492 416.668 230.974 419.078 234.134 420.048C237.073 420.949 237.503 418.61 235.839 416.563C233.526 413.716 230.921 410.998 228.558 408.162C206.698 381.923 186.095 354.703 166.747 326.503C165.555 330.296 169.084 368.385 171.899 383.217C172.241 385.013 218.327 412.558 224.373 415.269Z" fill="#FFB200"/>
</g>
</g>
<g style="mix-blend-mode:screen" opacity="0.134">
<g style="mix-blend-mode:screen" opacity="0.134">
<path d="M252.053 574.383C253.58 594.109 265.037 611.518 276.927 627.425C297.351 625.53 306.295 621.378 310.094 618.655L310.082 618.598C301.965 605.584 293.844 592.531 287.125 578.742C283.947 572.223 280.908 565.309 275.289 560.733C269.67 556.157 260.514 554.948 255.548 560.219C252.111 563.865 251.651 569.391 252.053 574.383Z" fill="#FFB200"/>
</g>
</g>
<path d="M174.583 619.019C167.408 610.666 160.179 602.362 153.058 593.963L131.687 568.757C127.655 564.003 123.583 559.268 119.666 554.415C119.329 553.998 119.898 553.398 120.267 553.814C123.921 557.931 127.432 562.18 131 566.372C134.567 570.564 138.109 574.789 141.661 579C148.767 587.425 155.862 595.857 162.947 604.295C166.954 609.081 170.894 613.917 174.889 618.712C175.066 618.924 174.765 619.226 174.581 619.021L174.583 619.019Z" fill="#2C2C2D"/>
<path d="M179.636 620.75C177.922 620.339 176.223 619.861 174.548 619.311L175.164 618.841L175.143 621.468C175.143 621.905 175.143 622.343 175.131 622.781C175.142 623.218 175.093 623.654 174.984 624.077C174.965 624.141 174.925 624.198 174.87 624.238C174.816 624.278 174.75 624.3 174.683 624.3C174.615 624.3 174.55 624.278 174.495 624.238C174.441 624.198 174.401 624.141 174.381 624.077C174.271 623.654 174.221 623.218 174.231 622.781C174.218 622.343 174.222 621.905 174.217 621.468L174.188 618.841C174.189 618.766 174.207 618.693 174.241 618.626C174.274 618.559 174.323 618.501 174.382 618.456C174.441 618.411 174.51 618.379 174.583 618.364C174.657 618.35 174.732 618.352 174.804 618.37C176.52 618.898 178.187 619.571 179.788 620.382C179.993 620.485 179.848 620.8 179.634 620.748L179.636 620.75Z" fill="#2C2C2D"/>
<path d="M150.738 672.969C155.087 684.232 160.036 695.274 165.439 706.068C170.816 716.808 176.691 727.277 183.064 737.477C189.428 747.662 196.257 757.537 203.552 767.101C210.872 776.696 218.635 785.931 226.843 794.805C235.004 803.627 243.552 812.055 252.487 820.091C253.601 821.098 254.72 822.097 255.846 823.089C256.051 823.272 255.751 823.568 255.545 823.391C246.398 815.477 237.654 807.11 229.345 798.321C221.023 789.546 213.146 780.348 205.714 770.813C198.339 761.355 191.419 751.567 184.953 741.449C178.466 731.292 172.468 720.844 166.959 710.105C161.453 699.41 156.496 688.442 152.105 677.244C151.56 675.845 151.01 674.449 150.473 673.048C150.408 672.878 150.678 672.805 150.744 672.973L150.738 672.969Z" fill="#FF7900"/>
<path d="M157.572 718.946C163.339 731.147 170.136 742.834 177.89 753.879C180.078 757.009 182.333 760.091 184.657 763.126C184.759 763.254 184.531 763.434 184.43 763.301C176.089 752.67 168.744 741.295 162.489 729.318C160.719 725.932 159.027 722.507 157.413 719.044C157.363 718.941 157.522 718.838 157.572 718.951V718.946Z" fill="#FF7900"/>
<path d="M359.174 808.457C368.209 816.113 377.099 823.938 385.843 831.933C394.542 839.91 403.089 848.048 411.483 856.347C416.217 861.027 420.903 865.756 425.483 870.587C425.611 870.721 425.41 870.924 425.278 870.792C416.941 862.38 408.589 853.987 400.032 845.796C391.507 837.635 382.836 829.631 374.019 821.783C369.049 817.356 364.033 812.983 358.969 808.662C358.827 808.541 359.032 808.337 359.174 808.457Z" fill="#FF7900"/>
<path d="M389.241 820.109C398.012 827.466 406.343 835.331 414.191 843.664C416.407 846.017 418.575 848.412 420.695 850.849C420.824 850.996 420.611 851.211 420.479 851.065C412.882 842.503 404.826 834.359 396.347 826.669C393.95 824.503 391.518 822.377 389.052 820.291C388.926 820.188 389.108 820.003 389.234 820.109H389.241Z" fill="#FF7900"/>
<path d="M393.253 808.071C404.154 817.029 414.876 826.197 425.418 835.577C435.96 844.957 446.299 854.552 456.434 864.364C462.123 869.858 467.74 875.426 473.284 881.067C473.31 881.097 473.324 881.136 473.323 881.176C473.322 881.216 473.306 881.254 473.277 881.282C473.249 881.311 473.211 881.327 473.171 881.328C473.131 881.329 473.092 881.315 473.062 881.289C463.097 871.306 452.956 861.502 442.639 851.875C432.322 842.249 421.833 832.82 411.17 823.59C405.19 818.416 399.161 813.3 393.082 808.242C392.962 808.139 393.133 807.974 393.252 808.071H393.253Z" fill="#FF7900"/>
<path d="M292.905 520.238C291.912 519.703 291.051 518.954 290.385 518.044C289.72 517.134 289.266 516.086 289.057 514.978C288.484 512.584 288.827 510.252 291.195 509.122C291.966 508.697 292.841 508.495 293.721 508.54C295.253 508.716 296.361 510.065 297.152 511.388C297.838 512.506 298.369 513.712 298.728 514.973C299.001 515.983 299.414 517.657 298.858 518.636C297.767 520.555 294.774 521.092 292.905 520.238Z" fill="#F4BE90"/>
<path d="M357.911 421.902L357.677 422.358" stroke="#43496D" stroke-linecap="round" stroke-linejoin="round"/>
<path d="M355.369 426.779C349.207 438.379 342.426 449.64 335.053 460.511" stroke="#43496D" stroke-linecap="round" stroke-linejoin="round" stroke-dasharray="0.97 4.85"/>
<path d="M333.647 462.57L333.355 462.992" stroke="#43496D" stroke-linecap="round" stroke-linejoin="round"/>
<path d="M420.712 444.208L420.295 444.508" stroke="#43496D" stroke-linecap="round" stroke-linejoin="round"/>
<path d="M416.15 447.425C395.116 461.934 372.156 473.429 347.937 481.576" stroke="#43496D" stroke-linecap="round" stroke-linejoin="round" stroke-dasharray="0.99 4.93"/>
<path d="M345.531 482.372L345.042 482.532" stroke="#43496D" stroke-linecap="round" stroke-linejoin="round"/>
<path d="M446.215 475.633C446.056 475.69 445.894 475.745 445.733 475.801" stroke="#43496D" stroke-linecap="round" stroke-linejoin="round"/>
<path d="M440.855 477.363C414.423 485.254 372.871 489.264 346.095 490.144" stroke="#43496D" stroke-linecap="round" stroke-linejoin="round" stroke-dasharray="1 4.99"/>
<path d="M343.533 490.22L343.02 490.232" stroke="#43496D" stroke-linecap="round" stroke-linejoin="round"/>
<path d="M400.527 506.332L400.013 506.301" stroke="#43496D" stroke-linecap="round" stroke-linejoin="round"/>
<path d="M394.967 505.997C379.658 505.052 364.309 503.822 349.47 500.11" stroke="#43496D" stroke-linecap="round" stroke-linejoin="round" stroke-dasharray="0.98 4.91"/>
<path d="M347.032 499.476C346.867 499.431 346.701 499.387 346.537 499.341" stroke="#43496D" stroke-linecap="round" stroke-linejoin="round"/>
<path d="M355.002 562.988C365.173 557.601 368.899 546.889 364.637 536.263C362.89 531.899 369.938 529.965 371.672 534.291C374.306 540.688 374.432 547.843 372.027 554.33C369.622 560.817 364.861 566.16 358.693 569.294C354.553 571.487 350.831 565.197 355.002 562.988Z" fill="#FFB200"/>
<path d="M347.94 552.558C351.463 550.764 355.005 545.127 353.217 541.142C351.312 536.9 357.594 533.154 359.523 537.45C362.913 545.012 359.055 555.084 351.632 558.863C347.462 560.987 343.734 554.699 347.94 552.558Z" fill="#FFB200"/>
<path d="M343.184 547.028C339.086 544.724 342.659 538.352 346.764 540.658C350.868 542.964 347.288 549.335 343.184 547.028Z" fill="#FFB200"/>
</g>
<defs>
<linearGradient id="paint0_linear_2_3" x1="326.406" y1="1073.01" x2="-407.847" y2="134.93" gradientUnits="userSpaceOnUse">
<stop stop-color="#D5005B" stop-opacity="0.97"/>
<stop offset="0.024" stop-color="#C8005E" stop-opacity="0.97"/>
<stop offset="0.116" stop-color="#9D0068" stop-opacity="0.97"/>
<stop offset="0.21" stop-color="#7A0070" stop-opacity="0.97"/>
<stop offset="0.305" stop-color="#5E0077" stop-opacity="0.97"/>
<stop offset="0.401" stop-color="#4B007B" stop-opacity="0.97"/>
<stop offset="0.5" stop-color="#3F007E" stop-opacity="0.97"/>
<stop offset="0.604" stop-color="#3B007F" stop-opacity="0.97"/>
</linearGradient>
<linearGradient id="paint1_linear_2_3" x1="-440427" y1="98832.7" x2="-468973" y2="214611" gradientUnits="userSpaceOnUse">
<stop stop-color="#D5005B" stop-opacity="0.97"/>
<stop offset="0.024" stop-color="#C8005E" stop-opacity="0.97"/>
<stop offset="0.116" stop-color="#9D0068" stop-opacity="0.97"/>
<stop offset="0.21" stop-color="#7A0070" stop-opacity="0.97"/>
<stop offset="0.305" stop-color="#5E0077" stop-opacity="0.97"/>
<stop offset="0.401" stop-color="#4B007B" stop-opacity="0.97"/>
<stop offset="0.5" stop-color="#3F007E" stop-opacity="0.97"/>
<stop offset="0.604" stop-color="#3B007F" stop-opacity="0.97"/>
</linearGradient>
<linearGradient id="paint2_linear_2_3" x1="-393656" y1="82581.8" x2="-541914" y2="380081" gradientUnits="userSpaceOnUse">
<stop stop-color="#D5005B" stop-opacity="0.97"/>
<stop offset="0.024" stop-color="#C8005E" stop-opacity="0.97"/>
<stop offset="0.116" stop-color="#9D0068" stop-opacity="0.97"/>
<stop offset="0.21" stop-color="#7A0070" stop-opacity="0.97"/>
<stop offset="0.305" stop-color="#5E0077" stop-opacity="0.97"/>
<stop offset="0.401" stop-color="#4B007B" stop-opacity="0.97"/>
<stop offset="0.5" stop-color="#3F007E" stop-opacity="0.97"/>
<stop offset="0.604" stop-color="#3B007F" stop-opacity="0.97"/>
</linearGradient>
<linearGradient id="paint3_linear_2_3" x1="150.567" y1="569.333" x2="13.094" y2="1231.96" gradientUnits="userSpaceOnUse">
<stop stop-color="#D5005B" stop-opacity="0.97"/>
<stop offset="0.099" stop-color="#D0005C" stop-opacity="0.94"/>
<stop offset="0.238" stop-color="#C3005F" stop-opacity="0.855"/>
<stop offset="0.399" stop-color="#AC0064" stop-opacity="0.715"/>
<stop offset="0.579" stop-color="#8E006C" stop-opacity="0.52"/>
<stop offset="0.77" stop-color="#660075" stop-opacity="0.274"/>
<stop offset="0.956" stop-color="#3B007F" stop-opacity="0"/>
</linearGradient>
<linearGradient id="paint4_linear_2_3" x1="-99459.3" y1="20751" x2="-100412" y2="29602.3" gradientUnits="userSpaceOnUse">
<stop stop-color="#D5005B" stop-opacity="0.97"/>
<stop offset="0.024" stop-color="#C8005E" stop-opacity="0.97"/>
<stop offset="0.116" stop-color="#9D0068" stop-opacity="0.97"/>
<stop offset="0.21" stop-color="#7A0070" stop-opacity="0.97"/>
<stop offset="0.305" stop-color="#5E0077" stop-opacity="0.97"/>
<stop offset="0.401" stop-color="#4B007B" stop-opacity="0.97"/>
<stop offset="0.5" stop-color="#3F007E" stop-opacity="0.97"/>
<stop offset="0.604" stop-color="#3B007F" stop-opacity="0.97"/>
</linearGradient>
<linearGradient id="paint5_linear_2_3" x1="320.571" y1="485.538" x2="310.234" y2="488.41" gradientUnits="userSpaceOnUse">
<stop stop-color="#FF9100" stop-opacity="0.97"/>
<stop offset="0.215" stop-color="#C2740F" stop-opacity="0.97"/>
<stop offset="0.53" stop-color="#6E4C23" stop-opacity="0.97"/>
<stop offset="0.754" stop-color="#393330" stop-opacity="0.97"/>
<stop offset="0.864" stop-color="#252935" stop-opacity="0.97"/>
</linearGradient>
<clipPath id="clip0_2_3">
<rect width="839" height="1024" fill="white" transform="matrix(-1 0 0 1 839 0)"/>
</clipPath>
</defs>
</svg>